HIERARCHY
ROOT Hips
{
	OFFSET 39.054501 -3.709956 98.889000
	CHANNELS 6 Xposition Yposition Zposition Xrotation Yrotation Zrotation
	JOINT spine
	{
		OFFSET 0.000000 -0.477353 8.301033
		CHANNELS 3 Xrotation Yrotation Zrotation
		JOINT spine1
		{
			OFFSET 0.000000 -0.000001 10.456497
			CHANNELS 3 Xrotation Yrotation Zrotation
			JOINT spine2
			{
				OFFSET 0.000000 -0.000002 10.019203
				CHANNELS 3 Xrotation Yrotation Zrotation
				JOINT Neck
				{
					OFFSET 0.000000 -1.226414 25.723503
					CHANNELS 3 Xrotation Yrotation Zrotation
					JOINT Head
					{
						OFFSET 0.000000 -0.000001 7.771744
						CHANNELS 3 Xrotation Yrotation Zrotation
						End Site
						{
							OFFSET 0.000000 6.203937 18.811996
						}
					}
				}
				JOINT RightShoulder
				{
					OFFSET -4.218800 0.587437 10.820000
					CHANNELS 3 Xrotation Yrotation Zrotation
					JOINT RightArm
					{
						OFFSET 0.000000 -0.000002 14.191406
						CHANNELS 3 Xrotation Yrotation Zrotation
						JOINT RightArmRoll
						{
							OFFSET 0.000000 -0.000001 7.164078
							CHANNELS 3 Xrotation Yrotation Zrotation
							JOINT RightForeArm
							{
								OFFSET 0.000000 -0.000003 20.866501
								CHANNELS 3 Xrotation Yrotation Zrotation
								JOINT RightForeArmRoll
								{
									OFFSET 0.000000 -0.000001 8.039215
									CHANNELS 3 Xrotation Yrotation Zrotation
									JOINT RightHand
									{
										OFFSET 0.000000 -0.000003 16.132996
										CHANNELS 3 Xrotation Yrotation Zrotation
										End Site
										{
											OFFSET 0.000000 0.000000 0.100006
										}
									}
								}
							}
						}
					}
				}
				JOINT LeftShoulder
				{
					OFFSET 4.218800 0.587437 10.820000
					CHANNELS 3 Xrotation Yrotation Zrotation
					JOINT LeftArm
					{
						OFFSET 0.000000 -0.000002 14.191406
						CHANNELS 3 Xrotation Yrotation Zrotation
						JOINT LeftArmRoll
						{
							OFFSET 0.000000 -0.000001 7.164078
							CHANNELS 3 Xrotation Yrotation Zrotation
							JOINT LeftForeArm
							{
								OFFSET 0.000000 -0.000003 20.866501
								CHANNELS 3 Xrotation Yrotation Zrotation
								JOINT LeftForeArmRoll
								{
									OFFSET 0.000000 -0.000001 8.039215
									CHANNELS 3 Xrotation Yrotation Zrotation
									JOINT LeftHand
									{
										OFFSET 0.000000 -0.000003 16.132996
										CHANNELS 3 Xrotation Yrotation Zrotation
										End Site
										{
											OFFSET 0.000000 0.000000 0.100006
										}
									}
								}
							}
						}
					}
				}
			}
		}
	}
	JOINT RightUpLeg
	{
		OFFSET -7.357731 1.131810 -1.349213
		CHANNELS 3 Xrotation Yrotation Zrotation
		JOINT RightUpLegRoll
		{
			OFFSET 0.000000 -0.000003 18.916801
			CHANNELS 3 Xrotation Yrotation Zrotation
			JOINT RightLeg
			{
				OFFSET 0.000000 0.000004 -23.425598
				CHANNELS 3 Xrotation Yrotation Zrotation
				JOINT RightLegRoll
				{
					OFFSET 0.000000 -0.000004 23.502304
					CHANNELS 3 Xrotation Yrotation Zrotation
					JOINT RightFoot
					{
						OFFSET 0.000000 -0.000003 19.561707
						CHANNELS 3 Xrotation Yrotation Zrotation
						JOINT RightToeBase
						{
							OFFSET 0.000000 -0.000003 16.352600
							CHANNELS 3 Xrotation Yrotation Zrotation
							End Site
							{
								OFFSET 0.006931 0.912836 7.919434
							}
						}
					}
				}
			}
		}
	}
	JOINT LeftUpLeg
	{
		OFFSET 7.357731 1.131810 -1.349213
		CHANNELS 3 Xrotation Yrotation Zrotation
		JOINT LeftUpLegRoll
		{
			OFFSET 0.000000 -0.000003 18.916901
			CHANNELS 3 Xrotation Yrotation Zrotation
			JOINT LeftLeg
			{
				OFFSET 0.000000 -0.000004 23.425499
				CHANNELS 3 Xrotation Yrotation Zrotation
				JOINT LeftLegRoll
				{
					OFFSET 0.000000 -0.000004 23.719498
					CHANNELS 3 Xrotation Yrotation Zrotation
					JOINT LeftFoot
					{
						OFFSET 0.000000 -0.000003 19.344406
						CHANNELS 3 Xrotation Yrotation Zrotation
						JOINT LeftToeBase
						{
							OFFSET 0.000000 -0.000003 16.352600
							CHANNELS 3 Xrotation Yrotation Zrotation
							End Site
							{
								OFFSET -0.031063 0.912835 7.919434
							}
						}
					}
				}
			}
		}
	}
}
MOTION
Frames: 8
Frame Time: 0.041667
39.458595 -4.074110 98.869904 -1.055698 -1.166552 0.205550 -1.898383 0.114944 0.212809 0.197232 0.231701 0.436272 1.842305 0.231488 0.433508 32.317566 -6.847483 -0.727554 -16.921027 8.273509 -1.183797 -14.806052 -32.266992 -16.628008 -134.226085 -172.808212 -76.663491 0.000007 -0.000003 -0.000017 93.419550 7.292604 11.123019 -0.000002 0.000028 -3.006078 -5.000194 -7.999430 0.000075 5.649328 65.374999 -5.579557 -44.096296 101.946406 24.852690 0.000003 -0.000006 -0.000004 5.034599 9.670986 0.148153 0.000002 -0.000006 3.000010 -5.000244 7.998875 -0.000158 -0.811381 -174.744516 1.496974 -179.999991 0.000005 -1.064002 173.387890 -3.808573 -0.681154 0.000001 -0.000002 0.078850 69.661673 6.871512 2.142892 25.456962 -7.355616 -0.000001 1.093290 176.946542 1.416856 -0.000005 -0.000005 -1.110850 -6.761188 3.766190 0.829388 -0.000000 -0.000004 -0.074163 67.609345 -6.935480 -2.103187 25.456957 7.355612 -0.000011 
39.455597 -4.079755 98.868889 -1.055740 -1.168971 0.207322 -1.900084 0.114221 0.213171 0.194062 0.230196 0.436649 1.839135 0.230135 0.433903 32.346249 -6.816904 -0.730259 -16.955752 8.251497 -1.182816 -14.790858 -32.229559 -16.605091 -134.221878 -172.878850 -76.623890 0.000006 -0.000002 -0.000014 94.043877 7.187283 11.258938 0.000002 0.000030 -3.006079 -5.000196 -7.999431 0.000073 5.706112 65.404566 -5.639004 -44.077974 101.929187 24.840394 0.000003 -0.000005 -0.000003 5.039983 9.680951 0.146960 0.000002 -0.000006 3.000010 -5.000245 7.998875 -0.000156 -0.810304 -174.744530 1.496454 -179.999991 0.000005 -1.064002 173.385732 -3.807565 -0.680185 0.000002 -0.000002 0.078935 69.663148 6.871499 2.142799 25.456957 -7.355613 -0.000002 1.095843 176.946555 1.415610 -0.000005 -0.000004 -1.110740 -6.759032 3.767339 0.829264 0.000000 -0.000004 -0.074043 67.609051 -6.935526 -2.103316 25.456950 7.355613 -0.000010 
39.454998 -4.084007 98.869598 -1.056028 -1.171131 0.209104 -1.902044 0.113304 0.213666 0.190504 0.228173 0.437033 1.835574 0.228346 0.434309 32.381476 -6.781807 -0.733019 -16.995324 8.224598 -1.181599 -14.773156 -32.189852 -16.578665 -134.215485 -172.943286 -76.591672 0.000007 0.000000 -0.000014 94.663041 7.082519 11.392277 -0.000001 0.000028 -3.006079 -5.000196 -7.999433 0.000071 5.774531 65.438178 -5.710933 -44.067155 101.906620 24.835070 0.000002 -0.000004 -0.000003 5.046348 9.691927 0.145584 0.000001 -0.000006 3.000010 -5.000244 7.998873 -0.000157 -0.808969 -174.745527 1.495510 -179.999991 0.000005 -1.064002 173.383710 -3.805554 -0.680089 0.000002 -0.000002 0.079026 69.664596 6.871416 2.142893 25.456959 -7.355613 -0.000001 1.098517 176.945558 1.413989 -0.000005 -0.000004 -1.110620 -6.756898 3.768626 0.829147 0.000000 -0.000004 -0.073925 67.608641 -6.935561 -2.103348 25.456955 7.355612 -0.000011 
39.449398 -4.088406 98.869286 -1.056543 -1.173060 0.210916 -1.904213 0.112223 0.214272 0.186624 0.225709 0.437423 1.831694 0.226186 0.434725 32.422068 -6.742806 -0.735887 -17.039155 8.193310 -1.180179 -14.753656 -32.148481 -16.549485 -134.207084 -173.002012 -76.565861 0.000005 -0.000001 -0.000016 95.277533 6.978243 11.522992 -0.000000 0.000029 -3.006077 -5.000195 -7.999433 0.000069 5.852854 65.475102 -5.793486 -44.062373 101.879655 24.835437 0.000002 -0.000003 -0.000004 5.053618 9.703797 0.144036 0.000003 -0.000006 3.000012 -5.000242 7.998875 -0.000155 -0.807360 -174.745513 1.494137 -179.999991 0.000004 -1.064002 173.381839 -3.803559 -0.679983 0.000002 -0.000002 0.079123 69.665867 6.871395 2.142811 25.456955 -7.355614 -0.000001 1.101274 176.943564 1.412064 -0.000005 -0.000005 -1.110500 -6.754823 3.769994 0.829037 0.000001 -0.000004 -0.073809 67.608136 -6.935626 -2.103393 25.456950 7.355614 -0.000011 
39.447697 -4.092808 98.870392 -1.057242 -1.174750 0.212780 -1.906564 0.111012 0.214973 0.182497 0.222887 0.437820 1.827564 0.223728 0.435153 32.466959 -6.700539 -0.738867 -17.086133 8.158178 -1.178673 -14.732435 -32.105943 -16.517943 -134.196934 -173.055287 -76.545711 0.000006 -0.000003 -0.000018 95.887468 6.874614 11.653059 0.000003 0.000032 -3.006082 -5.000201 -7.999430 0.000070 5.939358 65.514778 -5.884822 -44.063152 101.848987 24.841132 0.000002 -0.000006 -0.000005 5.061724 9.716480 0.142330 0.000005 -0.000006 3.000010 -5.000244 7.998874 -0.000155 -0.805460 -174.746524 1.492435 -179.999991 0.000005 -1.064002 173.380240 -3.800561 -0.679744 0.000001 -0.000002 0.079221 69.666919 6.871365 2.142842 25.456959 -7.355614 -0.000001 1.104068 176.942566 1.409946 -0.000005 -0.000004 -1.110380 -6.752871 3.771390 0.828934 -0.000000 -0.000004 -0.073693 67.607630 -6.935690 -2.103536 25.456950 7.355613 -0.000010 
39.449398 -4.093338 98.868294 -1.058112 -1.176209 0.214712 -1.909024 0.109701 0.215750 0.178193 0.219787 0.438223 1.823264 0.221039 0.435592 32.515293 -6.655620 -0.741936 -17.135606 8.119723 -1.177097 -14.709931 -32.062656 -16.484595 -134.185391 -173.103481 -76.530159 0.000006 0.000001 -0.000014 96.493347 6.771449 11.781445 0.000001 0.000027 -3.006079 -5.000196 -7.999431 0.000073 6.032383 65.556565 -5.983152 -44.068548 101.815410 24.851215 0.000002 -0.000003 -0.000003 5.070606 9.729851 0.140491 0.000004 -0.000006 3.000011 -5.000241 7.998873 -0.000155 -0.803254 -174.748505 1.490445 -179.999991 0.000005 -1.064002 173.378984 -3.797579 -0.679483 0.000002 -0.000002 0.079321 69.667841 6.871297 2.142873 25.456959 -7.355617 -0.000001 1.106855 176.940572 1.407658 -0.000005 -0.000004 -1.110260 -6.751068 3.772754 0.828837 0.000000 -0.000004 -0.073580 67.607220 -6.935727 -2.103570 25.456952 7.355613 -0.000010 
39.442696 -4.096926 98.865089 -1.059134 -1.177449 0.216734 -1.911584 0.108326 0.216583 0.173781 0.216491 0.438635 1.818843 0.218188 0.436039 32.565823 -6.608686 -0.745145 -17.186674 8.078457 -1.175535 -14.686595 -32.019162 -16.450044 -134.172714 -173.146935 -76.518398 0.000007 0.000001 -0.000015 97.095463 6.668989 11.909067 0.000000 0.000026 -3.006083 -5.000200 -7.999430 0.000070 6.130182 65.599917 -6.086600 -44.078120 101.779634 24.865719 0.000001 -0.000005 -0.000002 5.080162 9.743805 0.138535 0.000001 -0.000006 3.000011 -5.000244 7.998873 -0.000156 -0.800722 -174.750499 1.488195 -179.999991 0.000005 -1.064002 173.378164 -3.794588 -0.679192 0.000002 -0.000002 0.079419 69.668476 6.871286 2.142830 25.456960 -7.355615 -0.000001 1.109590 176.938578 1.405293 -0.000005 -0.000004 -1.110150 -6.749463 3.774019 0.828743 0.000000 -0.000004 -0.073468 67.606920 -6.935773 -2.103698 25.456953 7.355613 -0.000010 
39.445698 -4.101066 98.866295 -1.060253 -1.178468 0.218867 -1.914164 0.106916 0.217454 0.169333 0.213079 0.439054 1.814402 0.215245 0.436494 32.617572 -6.560355 -0.748482 -17.238544 8.034912 -1.174032 -14.662736 -31.975930 -16.414792 -134.159368 -173.185962 -76.509593 0.000007 -0.000002 -0.000016 97.694265 6.566778 12.034936 0.000001 0.000030 -3.006082 -5.000197 -7.999431 0.000076 6.231013 65.644204 -6.193297 -44.090736 101.742505 24.883286 0.000003 -0.000004 -0.000003 5.090338 9.758232 0.136473 0.000005 -0.000006 3.000011 -5.000243 7.998875 -0.000156 -0.797848 -174.752507 1.485735 -179.999991 0.000005 -1.064002 173.377850 -3.791614 -0.679865 0.000001 -0.000002 0.079515 69.668879 6.871232 2.142896 25.456959 -7.355613 -0.000001 1.112226 176.936570 1.402924 -0.000005 -0.000004 -1.110050 -6.748119 3.775132 0.828654 0.000000 -0.000004 -0.073359 67.606831 -6.935841 -2.103717 25.456948 7.355613 -0.000011 
